<?xml version="1.0"?>
<svg width="128" height="88" xmlns="http://www.w3.org/2000/svg" xmlns:svg="http://www.w3.org/2000/svg" version="1.1">
 <g class="layer">
  <title>Layer 1</title>
  <g id="surface1">
   <path d="m13.98,1.5c-5.23,0.63 -9.83,3.85 -12.23,8.6c-1.77,3.55 -1.75,2.97 -1.75,26.9c0,23.93 -0.02,23.35 1.75,26.9c2.48,4.9 6.95,7.98 12.57,8.6c2.75,0.32 96.61,0.32 99.36,0c5.62,-0.62 10.09,-3.7 12.57,-8.6c1.77,-3.55 1.75,-2.97 1.75,-26.9c0,-23.93 0.02,-23.35 -1.75,-26.9c-2.48,-4.9 -6.95,-7.97 -12.57,-8.6c-2.45,-0.3 -97.28,-0.27 -99.7,0zm100.02,5.5c2.88,0.55 5.32,2.2 6.88,4.63c1.69,2.67 1.62,1.39 1.62,25.37c0,23.98 0.07,22.7 -1.62,25.38c-1.56,2.42 -4,4.07 -6.88,4.62c-1.82,0.35 -98.18,0.35 -100,0c-2.87,-0.55 -5.32,-2.2 -6.87,-4.62c-1.7,-2.68 -1.63,-1.4 -1.63,-25.38c0,-23.98 -0.07,-22.7 1.63,-25.37c1.5,-2.36 4,-4.08 6.67,-4.61c1.58,-0.32 98.58,-0.32 100.2,-0.02zm0,0" fill="#ffffff" fill-rule="nonzero" id="svg_1"/>
   <path d="m31.27,11.27l-0.77,0.78l0,49.9l0.77,0.78l0.78,0.77l63.9,0l0.78,-0.77l0.77,-0.78l0,-49.9l-0.77,-0.78l-0.78,-0.77l-63.9,0l-0.78,0.77zm60.98,25.73l0,21.25l-56.5,0l0,-42.5l56.5,0l0,21.25zm0,0" fill="#ffffff" fill-rule="nonzero" id="svg_2"/>
   <path d="m62.63,21.15c-6.23,1.37 -11.23,6.42 -12.48,12.65c-0.5,2.43 -0.5,3.97 0,6.4c0.98,4.8 4.33,9.2 8.62,11.25c5,2.4 10.38,2.3 15.11,-0.32c3.12,-1.73 4.62,-3.63 4.22,-5.28c-0.12,-0.47 -1.62,-2.2 -4.17,-4.8l-4.03,-4.05l4.03,-4.07c2.55,-2.58 4.05,-4.3 4.17,-4.78c0.4,-1.65 -1.1,-3.55 -4.22,-5.27c-3.33,-1.83 -7.7,-2.53 -11.25,-1.73zm7.32,5.85c0.7,0.3 1.3,0.63 1.3,0.7c0,0.07 -1.73,1.9 -3.85,4.03c-4.05,4.09 -4.42,4.72 -3.9,6.17c0.15,0.4 1.98,2.42 4.02,4.48c2.05,2.07 3.73,3.82 3.73,3.92c0,0.43 -2.8,1.27 -4.62,1.4c-3.23,0.2 -5.98,-0.85 -8.23,-3.1c-5.77,-5.75 -3.3,-15.45 4.58,-17.97c1.7,-0.56 5.27,-0.36 6.97,0.37zm0,0" fill="#ffffff" fill-rule="nonzero" id="svg_3"/>
   <path d="m16.25,13.48c-1.43,0.47 -2.75,1.32 -3.7,2.4c-3.2,3.62 -2.07,9.37 2.27,11.67c1.56,0.83 5.08,0.83 6.68,0c1.57,-0.82 2.88,-2.15 3.55,-3.65c0.77,-1.75 0.77,-4.55 0.02,-6.17c-0.67,-1.5 -2.32,-3.13 -3.77,-3.8c-1.25,-0.55 -4.03,-0.8 -5.05,-0.45zm3.43,5.82c1.14,1.08 0.52,3.2 -1.05,3.6c-1.33,0.33 -2.86,-1.2 -2.53,-2.55c0.4,-1.58 2.4,-2.15 3.58,-1.05zm0,0" fill="#ffffff" fill-rule="nonzero" id="svg_4"/>
   <path d="m107.38,13.68c-6.33,2.27 -6.86,10.75 -0.88,13.87c1.6,0.83 5.13,0.83 6.68,0c2.55,-1.35 4.07,-3.8 4.07,-6.57c0,-2.13 -0.55,-3.68 -1.8,-5.1c-2.02,-2.28 -5.32,-3.18 -8.07,-2.2zm3.87,5.57c1.07,1.07 0.8,2.8 -0.57,3.45c-2.05,0.98 -3.93,-1.72 -2.38,-3.38c0.7,-0.75 2.22,-0.8 2.95,-0.07zm0,0" fill="#ffffff" fill-rule="nonzero" id="svg_5"/>
   <path d="m108.88,35.07c-1.61,0.73 -1.95,2.95 -0.68,4.23c1.3,1.33 3.37,0.95 4.2,-0.75c1.05,-2.2 -1.27,-4.48 -3.52,-3.48zm0,0" fill="#ffffff" fill-rule="nonzero" id="svg_6"/>
   <path d="m17,36.38c-0.98,0.52 -1.25,1.27 -1.3,3.75l-0.07,2.25l-2.25,0.07c-2.5,0.05 -3.25,0.32 -3.78,1.35c-0.55,1.08 -0.42,2.1 0.38,3c0.72,0.8 0.79,0.83 3.2,0.95l2.45,0.13l0.12,2.37c0.18,2.73 0.25,3 1.23,3.57c1.17,0.7 2.2,0.56 3.17,-0.42c0.85,-0.85 0.85,-0.85 0.85,-3.25l0,-2.4l2.4,0c2.4,0 2.4,0 3.25,-0.85c0.98,-0.97 1.12,-2 0.42,-3.17c-0.57,-0.98 -0.84,-1.05 -3.57,-1.23l-2.37,-0.12l-0.13,-2.45c-0.12,-2.41 -0.15,-2.48 -0.95,-3.2c-0.9,-0.8 -2,-0.93 -3.05,-0.35zm0,0" fill="#ffffff" fill-rule="nonzero" id="svg_7"/>
   <path d="m102.32,41.93c-0.75,0.14 -1.75,1.22 -1.94,2.09c-0.28,1.18 0.55,2.53 1.75,2.96c0.89,0.29 1.12,0.29 1.89,-0.08c2.86,-1.35 1.43,-5.55 -1.7,-4.97zm0,0" fill="#ffffff" fill-rule="nonzero" id="svg_8"/>
   <path d="m116.32,41.93c-0.89,0.17 -1.82,1.47 -1.82,2.55c0,1.15 0.57,1.97 1.68,2.45c2.3,0.95 4.57,-1.88 3.17,-3.91c-0.37,-0.52 -1.83,-1.32 -2.28,-1.25c-0.09,0.03 -0.44,0.11 -0.75,0.16zm0,0" fill="#ffffff" fill-rule="nonzero" id="svg_9"/>
   <path d="m108.23,49.73c-1.33,1.34 -0.93,3.57 0.77,4.27c1.5,0.63 3.25,-0.25 3.63,-1.82c0.64,-2.53 -2.53,-4.3 -4.4,-2.45zm0,0" fill="#ffffff" fill-rule="nonzero" id="svg_10"/>
   <path d="m79.85,74.25c-0.95,0.38 -1.65,1.52 -1.5,2.48c0.17,1.09 0.72,1.67 2.47,2.54c1.73,0.88 2.25,1.71 1.56,2.48c-0.98,1.07 -3,0.35 -3.75,-1.35c-0.33,-0.77 -0.33,-0.75 -0.36,0.83c-0.02,1.4 0.03,1.54 0.36,1.27c0.3,-0.25 0.52,-0.25 1.02,-0.02c1.37,0.62 3.53,0.12 4.1,-0.96c0.13,-0.27 0.25,-0.89 0.25,-1.39c0,-1.08 -0.65,-1.83 -2.4,-2.7c-1.67,-0.86 -2.22,-1.48 -1.87,-2.16c0.65,-1.2 2.75,-0.7 3.4,0.8c0.35,0.81 0.35,0.81 0.35,-0.69c0.02,-1 -0.05,-1.38 -0.21,-1.15c-0.2,0.29 -0.39,0.32 -1.22,0.07c-1.12,-0.35 -1.48,-0.35 -2.2,-0.05zm0,0" fill="#ffffff" fill-rule="nonzero" id="svg_11"/>
   <path d="m17,75.43l0.02,1.2l0.38,-0.68c0.4,-0.77 1.08,-1.2 1.85,-1.2c0.5,0 0.5,0.1 0.45,3.68l-0.07,3.67l-0.63,0.17c-0.35,0.11 0.43,0.18 1.75,0.18c1.32,0 2.1,-0.07 1.75,-0.18l-0.62,-0.17l-0.08,-3.67c-0.05,-3.58 -0.05,-3.68 0.45,-3.68c0.77,0 1.45,0.43 1.85,1.2l0.38,0.68l0.02,-1.2l0,-1.18l-7.5,0l0,1.18zm0,0" fill="#ffffff" fill-rule="nonzero" id="svg_12"/>
   <path d="m33.82,74.52c0.33,0.21 0.43,0.58 0.43,1.61l0,1.35l-0.68,-0.38c-1.37,-0.78 -2.77,0.4 -3,2.47c-0.27,2.33 1.78,4.08 3.23,2.75c0.43,-0.37 0.45,-0.37 0.45,0.03c0,0.35 0.15,0.4 0.95,0.25c1.12,-0.2 1.93,-0.58 1.25,-0.6c-0.4,0 -0.45,-0.35 -0.45,-3.87l0,-3.88l-1.3,0c-1.02,0.02 -1.22,0.07 -0.88,0.27zm-0.02,3.16c0.35,0.3 0.45,0.77 0.45,2.07c0,1.7 -0.25,2.25 -1.05,2.25c-0.88,0 -1.3,-2.7 -0.65,-4.12c0.33,-0.73 0.63,-0.78 1.25,-0.2zm0,0" fill="#ffffff" fill-rule="nonzero" id="svg_13"/>
   <path d="m48.52,74.52c0.86,0.3 0.98,0.8 0.98,3.63c0,3.53 -0.3,4.42 -1.37,4c-0.31,-0.1 -0.33,-0.25 -0.08,-0.77c0.25,-0.53 0.22,-0.73 -0.12,-1.08c-0.33,-0.32 -0.53,-0.35 -0.88,-0.15c-0.67,0.42 -0.65,1.28 0.05,1.98c0.88,0.87 2.65,0.87 3.53,0c0.6,-0.58 0.62,-0.75 0.62,-3.48c0,-3.08 0.2,-4.05 0.93,-4.22c0.25,-0.08 -0.63,-0.13 -1.93,-0.13c-1.82,0 -2.23,0.05 -1.73,0.22zm0,0" fill="#ffffff" fill-rule="nonzero" id="svg_14"/>
   <path d="m85.98,76.3c-0.66,0.68 -1,1.2 -0.83,1.2c0.28,0 0.35,0.48 0.35,2.07c0,2.41 0.35,3.18 1.5,3.18c0.4,0 0.9,-0.18 1.1,-0.4c0.53,-0.5 0.5,-0.53 -0.15,-0.5c-0.55,0.03 -0.57,-0.08 -0.65,-2.17l-0.07,-2.18l0.77,0c0.4,0 0.75,-0.12 0.75,-0.25c0,-0.15 -0.32,-0.25 -0.73,-0.25c-0.67,0 -0.75,-0.07 -0.82,-0.95l-0.07,-0.92l-1.15,1.17zm0,0" fill="#ffffff" fill-rule="nonzero" id="svg_15"/>
   <path d="m25.57,77.25c-1.5,0.9 -1.72,3.52 -0.39,4.85c0.82,0.85 2.45,0.9 3.3,0.13c1.59,-1.5 1.27,-4.33 -0.6,-5.13c-1.13,-0.45 -1.36,-0.45 -2.31,0.15zm1.93,0.48c0.38,0.75 0.32,3.59 -0.1,4.17c-0.3,0.37 -0.45,0.42 -0.83,0.2c-0.34,-0.22 -0.47,-0.65 -0.52,-2.05c-0.07,-1.85 0.2,-2.8 0.83,-2.8c0.19,0 0.47,0.23 0.62,0.48zm0,0" fill="#ffffff" fill-rule="nonzero" id="svg_16"/>
   <path d="m38.82,77.25c-1.5,0.9 -1.72,3.52 -0.39,4.85c0.82,0.85 2.45,0.9 3.3,0.13c1.59,-1.5 1.27,-4.33 -0.6,-5.13c-1.13,-0.45 -1.36,-0.45 -2.31,0.15zm1.93,0.48c0.38,0.75 0.32,3.59 -0.1,4.17c-0.3,0.37 -0.45,0.42 -0.83,0.2c-0.34,-0.22 -0.47,-0.65 -0.52,-2.05c-0.07,-1.85 0.2,-2.8 0.83,-2.8c0.19,0 0.47,0.23 0.62,0.48zm0,0" fill="#ffffff" fill-rule="nonzero" id="svg_17"/>
   <path d="m61.63,77.1c-1.28,0.58 -1.86,2.15 -1.38,3.88c0.32,1.17 1.05,1.77 2.2,1.77c1.03,0 1.7,-0.35 2.07,-1.07c0.3,-0.53 0.28,-0.53 -0.2,-0.13c-0.27,0.25 -0.72,0.45 -1.02,0.45c-0.65,0 -1.55,-1.12 -1.55,-1.9c0,-0.58 0.1,-0.6 1.52,-0.6l1.55,0l-0.17,-0.8c-0.3,-1.52 -1.65,-2.22 -3.02,-1.6zm1.32,0.45c0.18,0.18 0.3,0.55 0.3,0.88c0,0.47 -0.12,0.57 -0.75,0.57c-0.62,0 -0.75,-0.1 -0.75,-0.57c0,-0.53 0.4,-1.18 0.75,-1.18c0.07,0 0.27,0.13 0.45,0.3zm0,0" fill="#ffffff" fill-rule="nonzero" id="svg_18"/>
   <path d="m66.8,77.13c-1.42,0.62 -1.6,2.37 -0.32,3.17c0.47,0.27 0.45,0.3 -0.13,0.77c-0.67,0.53 -0.78,1.25 -0.28,1.73c0.31,0.25 0.28,0.38 -0.14,0.7c-0.41,0.35 -0.45,0.5 -0.2,0.95c0.52,0.98 3.77,1.07 4.77,0.18c0.6,-0.53 0.68,-1.93 0.15,-2.36c-0.2,-0.17 -1.02,-0.37 -1.83,-0.42c-2,-0.2 -2.19,-0.28 -1.82,-0.72c0.18,-0.2 0.73,-0.38 1.25,-0.38c0.57,0 1.2,-0.2 1.63,-0.55c0.57,-0.45 0.64,-0.65 0.55,-1.5c-0.11,-0.7 -0.05,-0.95 0.22,-0.95c0.2,0 0.35,-0.18 0.35,-0.37c0,-0.28 -0.27,-0.38 -0.98,-0.38c-0.52,0 -1.27,-0.05 -1.67,-0.12c-0.4,-0.08 -1.1,0.05 -1.55,0.25zm1.95,0.62c0.38,0.73 0.23,2.02 -0.3,2.32c-0.57,0.38 -1.2,-0.19 -1.2,-1.12c0,-1.5 0.95,-2.25 1.5,-1.2zm1.1,5.82c0.42,0.33 0.42,0.36 0.03,0.75c-0.61,0.63 -2.78,0.58 -3.11,-0.02c-0.17,-0.32 -0.14,-0.57 0.03,-0.75c0.4,-0.4 2.5,-0.37 3.05,0.02zm0,0" fill="#ffffff" fill-rule="nonzero" id="svg_19"/>
   <path d="m73.6,76.98c-1.03,0.45 -1.6,1.5 -1.6,2.95c0,1.17 0.1,1.47 0.73,2.09c0.57,0.58 0.95,0.73 1.77,0.73c0.82,0 1.2,-0.15 1.77,-0.73c0.63,-0.64 0.73,-0.92 0.73,-2.12c0,-1.17 -0.1,-1.52 -0.68,-2.15c-0.75,-0.8 -1.87,-1.12 -2.72,-0.77zm1.38,0.62c0.2,0.22 0.27,1.13 0.22,2.45c-0.07,2.02 -0.1,2.08 -0.68,2.08c-0.5,0 -0.67,-0.18 -0.84,-0.88c-0.41,-1.52 0.09,-4 0.82,-4c0.1,0 0.32,0.15 0.48,0.35zm0,0" fill="#ffffff" fill-rule="nonzero" id="svg_20"/>
   <path d="m90.82,77c-1.34,0.55 -2,2.98 -1.19,4.5c0.47,0.9 1.07,1.25 2.19,1.25c2.88,0 3.61,-4.77 0.88,-5.73c-0.9,-0.32 -1.13,-0.32 -1.88,-0.02zm1.38,0.48c0.43,0.25 0.68,2.65 0.37,3.77c-0.17,0.7 -0.34,0.88 -0.84,0.88c-0.58,0 -0.6,-0.06 -0.68,-2.08c-0.07,-2.42 0.25,-3.15 1.15,-2.57zm0,0" fill="#ffffff" fill-rule="nonzero" id="svg_21"/>
   <path d="m98.88,77.05c-0.28,0.15 -0.63,0.47 -0.81,0.68c-0.27,0.34 -0.3,0.32 -0.32,-0.18c0,-0.5 -0.12,-0.55 -1.18,-0.55c-0.92,0 -1.09,0.07 -0.87,0.3c0.43,0.43 0.4,4.88 0,5.02c-0.18,0.08 0.4,0.16 1.3,0.16c1.23,0 1.52,-0.05 1.2,-0.25c-0.35,-0.21 -0.45,-0.58 -0.45,-1.68c0,-1.75 0.52,-2.7 1.23,-2.25c0.25,0.15 0.65,0.2 0.87,0.13c0.53,-0.2 0.53,-1.33 0,-1.53c-0.47,-0.17 -0.37,-0.2 -0.97,0.15zm0,0" fill="#ffffff" fill-rule="nonzero" id="svg_22"/>
   <path d="m102.38,77.1c-1.28,0.58 -1.86,2.15 -1.38,3.88c0.32,1.17 1.05,1.77 2.2,1.77c1.03,0 1.7,-0.35 2.07,-1.07c0.3,-0.53 0.28,-0.53 -0.2,-0.13c-0.27,0.25 -0.72,0.45 -1.02,0.45c-0.65,0 -1.55,-1.12 -1.55,-1.9c0,-0.58 0.1,-0.6 1.52,-0.6l1.55,0l-0.17,-0.8c-0.3,-1.52 -1.65,-2.22 -3.02,-1.6zm1.32,0.45c0.18,0.18 0.3,0.55 0.3,0.88c0,0.47 -0.12,0.57 -0.75,0.57c-0.62,0 -0.75,-0.1 -0.75,-0.57c0,-0.53 0.4,-1.18 0.75,-1.18c0.07,0 0.27,0.13 0.45,0.3zm0,0" fill="#ffffff" fill-rule="nonzero" id="svg_23"/>
   <path d="m53.32,77.45c0.33,0.35 0.43,0.95 0.43,2.5c0,1.5 0.1,2.12 0.4,2.4c0.5,0.5 1.33,0.5 2.05,0c0.3,-0.2 0.55,-0.25 0.55,-0.12c0,0.15 0.52,0.27 1.18,0.27c0.92,0 1.09,-0.07 0.87,-0.3c-0.2,-0.2 -0.3,-1.18 -0.3,-2.75l0,-2.45l-1.15,0c-0.97,0 -1.12,0.05 -0.87,0.35c0.2,0.22 0.27,1.08 0.22,2.3c-0.05,1.53 -0.18,1.98 -0.52,2.2c-0.7,0.42 -0.93,-0.2 -0.93,-2.67l0,-2.18l-1.18,0c-1.09,0 -1.12,0.02 -0.75,0.45zm0,0" fill="#ffffff" fill-rule="nonzero" id="svg_24"/>
  </g>
 </g>
</svg>