<?xml version="1.0" encoding="UTF-8"?>
<svg xmlns="http://www.w3.org/2000/svg" version="1.1" viewBox="0 0 395.9 73.8">
  <defs>
    <style>
      .cls-1 {
        fill: #f1f1f1;
      }

      .cls-2 {
        fill: #fffa20;
      }

      .cls-3 {
        fill: #c1c1c1;
      }

      .cls-4 {
        fill: #b63f40;
      }

      .cls-5 {
        fill: #e34d4d;
      }

      .cls-6 {
        fill: #cacacb;
      }

      .cls-7 {
        fill: #fcfcfc;
      }

      .cls-8 {
        fill: #363334;
      }

      .cls-9 {
        fill: #403e3e;
      }
    </style>
  </defs>
  <!-- Generator: Adobe Illustrator 28.7.1, SVG Export Plug-In . SVG Version: 1.2.0 Build 142)  -->
  <g>
    <g id="Capa_1">
      <g>
        <path d="M45.5,21.2l-.2,1.4-2.5-.3v2.1c0,0-3.3-1.4-3.3-1.4l1.1,3.4-2.4.4-1.2,1.7c-.6-1-1.3-1.9-2.2-2.7l-1.3,1.8-1.8-2.6c-3.7.3-6.2,4.3-7.8,7.2l15.9-.8-.6,3h3c0,0-1.1,1.8-1.1,1.8l2.7,2-1.4,3.3h2l1,.6c-3.3,8.1-5.5,15.2-12.3,21.2-4,3.5-8.7,6.3-14.1,6.3s-8.1-1.1-10.6-3.3c-6.5-2.2-8.5-7.8-8.5-14.1,0-11.8,7.7-28.2,15.1-37.2,3.6-4.4,10-7.4,15.7-7.4s12.1,5,15.4,11h-.1c.5.8,1,1.4,1.4,2.3l-2,.3Z"/>
        <path class="cls-5" d="M43.5,17.3c-2.7-4.8-6.9-7.8-12.5-7.8s-11.1,2.6-14.5,6.7C9.3,24.7,1.7,40.9,1.7,52.3s1.4,10.2,6.6,12.2c2.3.9,5,1.5,7.4,1.5,5.3,0,10-2.7,13.8-6.2,6.6-5.9,8.9-12.9,12.1-20.8l-.7-.4h-3.2l1.4-2.3h-2c0,0,.5-2.9.5-2.9l-13.7.7-1.2,1.3,2.1,1.4-1.7,1,2.3,1.6-3.7,1.2,2.7,1.1-2,1.6,1.1.8c1.6.2,3.2.2,4.8.2-2.1,3.7-5.2,10.6-10.2,10.6s-5-3.7-5-6.7c0-4.7,4.9-16.1,7.5-20.3,1.8-3,4.2-6.5,8.2-6.5s3.5,1.6,4.6,3.3l1-1.4,2.7.2-1.8-4.3,3.5,1.5v-2.1c0,0,3.1,1,3.1,1l-.4-2,1.8-.2Z"/>
        <path d="M22.9,45.5l-3.1-2.4,1.2-1-1.4-.4c-1.1,2.9-2.6,6.5-2.6,9.7s0,.9,0,1.3c.3.1.8.2,1.1.2,3.5,0,5.9-4.5,7.4-7.2-.9,0-1.8-.1-2.6-.3Z"/>
        <path d="M77.2,28.4c-2,13-4.2,26.1-4.1,39.4-2.1-1.2-2.7-1.4-2.7-1.4l-1.4,1.3-1.7-2.5-2.3,3.1-1.4-2-1.9,1.4-1.8-2.8-4.2,3.3.9-5.7h-2.9l-3.3,6.2-1.8-2.1-1.4,1.3-2-2.5-2.2,2.1-.5-1.6-3.7,2-.8-3.7-6.1,2.1c7.1-15.8,15.7-31.3,26.7-44.8l1.7,3.7,3.2-2.1.8,4.2,3.6-4.4,2.4,2.4,5-3c-.4,2.6-.8,5.1-1.1,7.7l2.7-1.6Z"/>
        <path class="cls-5" d="M70.3,27.6l-2-2-4.7,5.7-1-5.2-2.7,1.8-1.4-3c-9.5,11.7-16.9,25.1-23.1,38.8l4.2-1.5.4,2,3.6-4.7.6,4.5,1.2-1.1,1.6,2,3.1-5.9h8.8l-.8,5.5,2.3-1.8,1.2,1.8,2-4.8,2.1,4.3,1.4-1.3,2.3,1.3c0-12.8,2-25.4,4-38.1l-3.1,1.8Z"/>
        <path d="M61.4,38.2l-2.3,12.3h-5.5c1.9-4.3,4.4-8.3,7-12.3h.8Z"/>
        <path d="M125.4,28.9c-5.7,12.6-9.6,26.2-12.6,39.7l-1.8-1.4-2,3-1-3.8-3.1,3.7-.9-3.8-2.3,2-.9-3.6-.8,1-3.8,1.6-1.8-2.3-2,1.6-1.6-3-2.7,2-.5-2.5c-.7,1.8-1.3,3.8-1.9,5.6l-1.2-1.8-2.4,2.5-.3-2.2-1-1.5-2.8,3.5-.5-1.8-2.7,1.4-.6-3.3-4.8,2.6c3.9-15.6,9-30.3,15.1-45.2l1.8,2,2-3.1,1.6,3.4,1-2.5,1.6,2.1,2.9-1.9s.4,4.5.7,7l1.6-1.4c.2,2.9.5,5.9.9,8.9,4-5.3,8.3-10.3,12.8-15.1l1.2,2,2.9-3.1,1,4.1,1.9-2.1,1.2,2.1,4.3-1.4s-1.2,3.5-2,5.7l.5.9,2.9-1.2Z"/>
        <path class="cls-5" d="M118.9,27.1l-.8-1.4-3,3.4-.3-4.8-2.5,2.7-1.2-2.1c-5.3,5.7-10.2,11.7-14.6,18.2-1.4-5.7-2-11.6-2.5-17.5l-1.8,1.6-.8-1.2-1.8,5.6-1.4-6.5-1.8,2.6-1.4-2c-5.2,12.7-9.6,25.7-12.9,38.9l3.1-1.6.5,1.2,2.6-4.3.8,5.3,2.2-2.3,1,1.6c1.4-4.4,2.9-8.8,4.8-13h.8c.3,3.7.8,7.4,1.4,11.1l1.9-1.4,1.3,1.8c3.1-4,5.8-8.3,9.2-12h.8l-3.6,13.4h.1c0,0,3.2-3.8,3.2-3.8l.3,3.6,2.3-1.8.9,3.6,1.8-2.7,1.7,1.3c2.9-13.1,6.8-26.1,12.1-38.5l-2.4,1Z"/>
        <path d="M155.5,32.4l-5.8,1,3.5,2-2.6,1.2,1.1,2.5c-1.5-.2-3.1-.3-4.6-.3s-1.7,0-2.5,0l1.6,3.7-2.3,1.4h3.2l.8,1.5-3.1,1.8,2.8,1.8-2.3,1.5,1.7,1.5-.8,1.5h-12c0-.1-.3,1.1-.3,1.1h.5c3.4,0,6.3-.1,9.6-.1l-2.7,3.9,1.4.8,2.4.5-2.3,2.7,1.4.8-2.5,1.1-.5.8,3.3.9-1.3,2.2c-3.1.8-6.2.9-9.3.9s-6.8-.1-10.2-.8l1.1-1.6c-2.3-.2-4.6-.4-6.8-.8l2.3-3.5-1.6-.7v-1.6c.1,0-3.7,1.8-3.7,1.8,2-11.9,6.1-22.4,11.5-33.2l2,2,.5-.3-1.2-3.9,2.7-.2-.9-1.7c4.6-.6,9.2-.9,13.8-.9s8.1.1,12.1.4l-3.5,2.9,3.6,2.9-2.4.5,2.5,2Z"/>
        <path class="cls-5" d="M151.3,28.8l-2.3-1.8,1.8-1.5c-2.7-.1-5.3-.2-7.9-.2s-7.4.1-11,.6l.9,1.8-3,.3,1,3.1-2.9,1.7-1.3-1.3c-4.3,8.7-7.9,17.8-9.7,27.4l3.5-1.6-.3,3.2,2.7,1-2.1,3.1c3.1.5,6.3.6,9.6.6s6.1,0,9.1-.8l1-1.7-4.6-1.3,4.2-1.8-1.4-.8,2.2-2.9c-2,.2-4.1.3-6.1.3s-4,0-6-.5l1.7-6.2h12.1c0,.1.6-.9.6-.9l-1.8-1.6,2.3-1.5-2.9-1.8,3.3-2-.5-1h-10.4c0,0,3.1-5.3,3.1-5.3,2.5-.3,5.1-.5,7.6-.5s2.7,0,4,.2l-1-2.3,2.3-1-3.8-2.2,6-1Z"/>
        <path d="M174.6,55.1l5.3,12.8-3.1-1.2-.3,2.8-2.1-2-.3,2-1.6-1.4-.8,1.6-2.3-2.1-.7,2-1.6-3.7h-.2c0,0-1.4,4-1.4,4l-4-9c-1,2.9-1.8,5.9-2.7,8.9l-2-2.3c-.8,1.3-2,2.9-2,2.9l-1.6-3.4-2.5,3.3-1.4-2.7-.6,1.1-1.5-1.5-.2-2-1.6,2.6-2.6-3.4c2.6-12.5,6.8-24.9,12.1-36.5l1.8,2,.3-.9h1.3c0,0-.3-2.5-.3-2.5l1.8-.5v-2c3.8-.8,7.9-1.4,11.9-1.4,5.9,0,11.1,2.9,12.9,8.7,1.7,2,2.7,4.6,2.7,7.3,0,7.3-6.3,13.8-12.6,16.6Z"/>
        <path class="cls-5" d="M171.6,24.1c-3.4,0-7,.4-10.3,1.1v2c.1,0-1.6.5-1.6.5l.4,3h-2c0,0-.8,2.3-.8,2.3l-2-2.2c-4.7,10.5-8.3,21.8-10.7,33l.5.8,2.8-4.8.5,4.2,1.5-1.2.9,3.9,2.5-3.3,1.8,2.2c1.1-3.8,2-7.7,3.6-11.4l1.3-.3,5.1,11.4.8-2.2,2.7,1.9.5-3.8,3.6,4.6.3-3.1,2.7,1.1-5.1-12.3c6.3-2.8,12.7-9.1,12.7-16.4s-5.3-10.8-11.8-10.8Z"/>
        <path d="M162,43.6l3.2-7.9c.9-.5,2-.8,3-.8,1.6,0,3.1.3,3.1,2.3,0,4.2-5.8,6.4-9.3,6.4Z"/>
        <path d="M227.8,28.4c-3.2,9-7.6,12.8-16.3,16.5-3.8,1.6-8.8,2.3-12.9,2.1-3.3,7.3-6,14.8-8.2,22.4l-1.6.9-.6-3.9-2.1,2.6v-1c0,0-1.9,1-1.9,1l-.4-2.9-1.7,2.1-1-2.4-1,1.4-1-1.4.4-1.4-.4-1.9-2.6,3.4-2.5-3.6c4.5-15,9.8-29.9,16.5-44h.1c0-.1-1.9-.8-1.9-.8l2.9-3.1-1.5-1.9,4.2-1.3-1.6-1.2,2.2-1.7-2.5-2.8c6.6-.4,13.2-1.4,19.8-1.4s11.8,1.1,14,8.2c2.1,2.4,3,5.8,3,8.9s-.6,4.8-1.4,7.1Z"/>
        <path class="cls-2" d="M217.4,6.3c-1.6-.3-3.4-.3-5.1-.3-5.4,0-10.7.7-16.1,1.1l1.4,1.6-1.9,1.4,2.7,1.9-5.2,1.6.8,1.1-2,2.2,2.6.9-2.7,1.9c-6.4,13.8-11.5,28-15.9,42.5l.6.9,3.6-4.6.6,3.2,1.6-1.6.4,4.6,2.1-2.5.7,4.1,1-.6c2.3-7.7,4.9-15.3,8.3-22.6h1.8c3.6,0,7.8-.7,11.2-2.1,8.6-3.6,13-7.3,16.2-16.2.8-2.3,1.3-4.6,1.3-7.1,0-5.1-2.4-10.5-7.9-11.4Z"/>
        <path d="M210.8,24.1c-2.8,5.3-5,6.5-10.9,6.5,1.9-4.6,3.6-9.3,6.3-13.5.7-.1,1.4-.2,2.1-.2,2,0,3.8.7,3.8,3s-.6,2.9-1.3,4.3Z"/>
        <path d="M211.4,23.1c-1,1.7-1.9,3.6-2.7,5.5,1.1-1.3,2.5-3.8,3-5.5h-.3Z"/>
        <path d="M280.3,33.3l-16,17.9,3.8,14.6h-1.2c0,0-1.3-1.8-1.3-1.8h-.7c0,0-.4,2.6-.4,2.6l-1.8-.9-1,2.5-2.1-1.6-1.6,1.4-.7-2.3-.7-.5-2.3,2-1.8-6.2-2.3,6.7-.9-2.1-1.5.9-.5.9-1.5-2.7-1.8,1.8-.5-2.1-3.2,2.6-.7-3.5-4.1,3.2c3.7-13.9,8.5-27.7,14.7-40.7l1.6,1.6,2.6-2.8.9,3.4,1.4-2.1,1.1,2.1,1.4-1.4,2.7,2.3-1.5,3.5,6.3-7.3,1.2,2.4,3.4-1.8-.2,3,3.3-2.5.5,1.7,2.9-1.5.6,4-1.4,1.6.2.9,3-1.8v1.9Z"/>
        <path class="cls-2" d="M277,30.2v-1.2l-2.9,1.7-.4-1.5-4.8,3.7.9-4.3-2.5,1.5-.9-1.8-11.2,12.8,4.8-11.3-.9-.7-1.8,1.8-.9-1.6-3.1,4.6.4-6-2,2.1-1.2-1.2c-5.1,10.9-9.2,22.4-12.4,34l2.5-2,.5,2.6,3.8-5.2v4.8l1.4-.8.7,1.6,4.1-12.3,3.8,13.1,1.4-1.3,2,1.6,1-2.4,1.7.9.5-3.7,2.3,3h.5c0,0-3.7-14.3-3.7-14.3l16-18Z"/>
        <path d="M301.9,35.3l-5.2.9,3.1,1.8-2.3,1.1,1,2.2c-1.3-.2-2.7-.2-4.1-.2s-1.5,0-2.3,0l1.4,3.3-2.1,1.2h2.9l.7,1.3-2.8,1.6,2.5,1.6-2.1,1.3,1.5,1.3-.7,1.3h-10.7c0-.1-.3,1-.3,1h.5c3,0,5.7-.1,8.6-.1l-2.4,3.5,1.3.7,2.1.4-2,2.4,1.3.7-2.3,1-.4.7,2.9.8-1.2,2c-2.7.7-5.5.8-8.4.8s-6.1-.1-9.1-.7l1-1.4c-2-.2-4.1-.4-6.1-.7l2-3.2-1.5-.6v-1.4c.1,0-3.3,1.6-3.3,1.6,1.8-10.7,5.4-20.1,10.2-29.7l1.8,1.8.5-.3-1.1-3.5,2.4-.2-.8-1.5c4.1-.5,8.2-.8,12.3-.8s7.3.1,10.9.4l-3.2,2.6,3.2,2.6-2.1.5,2.3,1.8Z"/>
        <path class="cls-2" d="M298.1,32.1l-2-1.6,1.6-1.3c-2.4-.1-4.7-.2-7.1-.2s-6.6.1-9.8.5l.8,1.6-2.7.2.9,2.8-2.6,1.5-1.2-1.2c-3.8,7.8-7.1,15.9-8.7,24.5l3.1-1.4-.2,2.9,2.4.9-1.9,2.7c2.8.4,5.7.5,8.5.5s5.5,0,8.2-.7l.9-1.5-4.1-1.2,3.7-1.6-1.2-.7,2-2.6c-1.8.2-3.7.3-5.5.3s-3.6,0-5.4-.4l1.5-5.5h10.8c0,.1.5-.8.5-.8l-1.6-1.5,2-1.3-2.6-1.6,3-1.8-.4-.9h-9.3c0,0,2.7-4.8,2.7-4.8,2.3-.3,4.6-.4,6.8-.4s2.4,0,3.5.2l-.9-2,2-.9-3.4-2,5.4-.9Z"/>
        <path d="M337.4,31.9c-5.1,11.3-8.6,23.4-11.2,35.5l-1.6-1.2-1.8,2.7-.9-3.4-2.7,3.3-.8-3.4-2,1.8-.8-3.2-.7.9-3.4,1.4-1.6-2.1-1.8,1.4-1.5-2.7-2.4,1.8-.4-2.2c-.6,1.6-1.2,3.4-1.7,5l-1-1.6-2.1,2.2-.2-2-.9-1.3-2.5,3.1-.5-1.6-2.4,1.2-.5-3-4.3,2.3c3.5-14,8-27.1,13.5-40.4l1.6,1.8,1.8-2.7,1.4,3,.9-2.3,1.4,1.9,2.6-1.7s.4,4,.6,6.3l1.4-1.3c.2,2.6.5,5.3.8,7.9,3.6-4.8,7.4-9.2,11.5-13.5l1,1.8,2.6-2.8.9,3.7,1.7-1.9,1.1,1.9,3.8-1.3s-1,3.2-1.8,5.1l.4.8,2.6-1.1Z"/>
        <path class="cls-2" d="M331.6,30.3l-.7-1.2-2.7,3-.3-4.3-2.2,2.4-1-1.9c-4.8,5.1-9.1,10.5-13.1,16.3-1.3-5.1-1.8-10.4-2.2-15.6l-1.6,1.5-.7-1.1-1.6,5-1.3-5.9-1.6,2.3-1.3-1.8c-4.6,11.3-8.5,22.9-11.5,34.8l2.8-1.5.4,1.1,2.3-3.8.7,4.7,2-2,.9,1.5c1.3-3.9,2.6-7.9,4.3-11.6h.7c.2,3.3.7,6.6,1.3,9.9l1.7-1.3,1.2,1.6c2.7-3.5,5.2-7.4,8.2-10.7h.7l-3.2,12h.1c0,0,2.9-3.4,2.9-3.4l.2,3.2,2-1.6.8,3.2,1.6-2.4,1.5,1.2c2.6-11.7,6-23.4,10.8-34.4l-2.1.9Z"/>
        <path d="M359.4,52.4c-2.7,8.7-7.7,16.8-17.9,16.8s-5.1-.5-7.1-2.3c-5.4-1.5-7.4-6.6-7.4-11.8s.7-6.1,1.7-9c4-10.7,9.6-18.2,22-18.2l-1.1,2.5c.7.2,1.2.4,2.9,1.1l.4-3c1.6.9,3,2.5,4.1,4.4.2.5.4,1,.7,1.4.4.5.9,1.1,1.2,1.6,1.5,2.3,2.1,5.3,2.1,8.1s-.6,5.7-1.5,8.4Z"/>
        <path class="cls-2" d="M353.9,31.1l-.2,2.6-1.8-.7v2.6l-5.1-2.2,1.9-1.6-1.2-.7.7-1.6c-10.1.2-15.2,8.8-18.2,17.2-1,2.7-1.6,5.6-1.6,8.4,0,6.6,3.2,10.8,10.1,10.8,10.1,0,14.9-8,17.6-16.6.9-2.7,1.5-5.5,1.5-8.3s-1-7.2-3.6-9.8Z"/>
        <path d="M340,57.4c-2.2,0-2.7-2.1-2.7-3.9,0-4.3,4-15.4,9.3-15.4s2.1,1.8,2.1,3.2c0,4.3-3.3,16-8.7,16Z"/>
        <path d="M340.7,55.7c3.7-1.5,6.1-9.8,6.8-13.4-3.8,2.6-6.4,9-6.8,13.4Z"/>
        <path d="M395.9,34.3c-5.5,10.8-9.9,22.9-13.1,34.6l-1.2-1-1.2,1.2-1.2-1.6-1.5,2-1.1-1.7-.7,1.8-.9.5-1-3.4-.2.6-2.6,1.7-2-7.1c-1,2.4-1.9,4.9-2.8,7.4l-1.2-1.6-1.6,1.2-1.5-2.1-2.3,3.3-.7-2.2-2.7,1.8-1-3-3.1,2c3.4-14.2,9-27.9,15.1-41.2l1.5,2.1,1.5-1.6.9,1.9,1.1-3.7,1.8,2.5,1.7-1.5.7,5.9.5.9,1-1.2.5,4.8c1.3-3.2,2.7-6.3,4.1-9.4l2.1,1.5,2.9-1.6v2.4c0,0,2.5-2.8,2.5-2.8l.6,2c.5,0,2-.5,2-.5,0,0,1.1,1.5,1.6,2.1l-1.4,2.9.2.9,1.6-1.4,1.2,1Z"/>
        <path class="cls-2" d="M391.7,30.6l-1.8,1.5-.4-1.8-3.2,4.4v-4.3c0,0-1.6.9-1.6.9l-1.4-1c-2.3,5.1-4.8,10.1-6.3,15.6h-.7l-1.6-15.5-.8,1-1-1.8-1.3,4.9-1.6-3.7-1.2,1.3-1-1.5c-5.1,11.1-10.1,22.9-13.1,34.8l1.6-1,.7,2,3.4-5,.2,3.7,1.8-.7,1,1.3c1.4-3.9,2.7-7.9,4.8-11.5l.5.2,3.5,12.3.4-.2,1.4-3.8,1.1,2.7,1.1-1.3,1.2,2.2,1.2-1.7,1.1,1c3.2-11.6,7.4-23.3,12.9-34l-.8-.7Z"/>
        <path class="cls-9" d="M168.6-34.2c.2.5.2,1.1.3,1.6.4-.6.7-1.2,1-1.9-.3.6-.6,1.3-1,1.9,0-.6-.1-1.1-.3-1.6-.2-.5-.4-1-.7-1.5.3.5.5,1,.7,1.5Z"/>
        <path d="M241.1,41.1c-.3-.5-.6-1.1-.9-1.6-7.3-10-21-11.9-31.5-4.4h0c-.9.6-1.6,1.3-2.2,2.1-.3.2-.6.5-.8.7-8,8.7-6.8,23.4,2.6,30.7,4.9,4.1,10.5,5.7,16.8,4.9,5.5-.7,10.2-3,13.7-7.4,0-1.7-.5-3.2-1.2-4.6.7,1.4,1.2,2.9,1.2,4.6.9-.6,1.4-1.5,2-2.4.2-.4.5-.8.7-1.2,3.7-7.2,3.8-14.4-.5-21.4Z"/>
        <g>
          <g>
            <path class="cls-7" d="M208.9,66.2c-8.3-6.5-9.4-19.6-2.3-27.3.2-.2.5-.4.7-.6,1.9-.2,3.6.4,5.3,1.1,4.3,2,8.1,4.9,11.7,7.9.8.6.9,1.2.6,2.2-1.2,4.4,2.3,8.5,6.5,7.3.5.7-.2,1.1-.6,1.5-1.7,2-3.7,3.6-5.9,4.8-5,2.8-10.4,3.4-16,3.1Z"/>
            <path class="cls-5" d="M209.3,36.3c9.2-6.7,21.2-5,27.7,3.9.3.4.5.9.8,1.4-.3.5-.3,1.1-.4,1.7-.5,2.8-.9,5.6-2.5,8.1,0-1.1-.4-2.2-1-3.2-1.2-1.9-3.4-3-5.3-2.3-1.2.4-1.9,0-2.8-.7-4.9-4.1-9.7-8.2-16.4-8.9Z"/>
            <path class="cls-6" d="M208.9,66.2c5.6.2,11-.3,16-3.1,2.3-1.3,4.2-2.9,5.9-4.8.3-.4,1-.8.6-1.5.4-.2.7-.3,1.1-.5,1.6,2.4,3.2,4.7,3.2,7.7-3.1,3.9-7.2,6-12,6.6-5.5.7-10.5-.7-14.7-4.3Z"/>
            <path class="cls-9" d="M232.5,56.2c-.4.2-.7.3-1.1.5-4.2,1.2-7.7-2.9-6.5-7.3.3-1,.1-1.5-.6-2.2-3.6-3.1-7.3-6-11.7-7.9-1.7-.8-3.4-1.3-5.3-1.1.5-.8,1.2-1.4,1.9-1.9,6.7.7,11.5,4.8,16.4,8.9.9.7,1.6,1.1,2.8.7,2-.7,4.1.4,5.3,2.3.6,1,.9,2.1,1,3.2,0,1-.3,2-.7,2.9-.9.3-1.2,1.2-1.6,2ZM227.3,51.1c0,1.7,1.2,3.1,2.7,3.2,1.5,0,2.7-1.3,2.7-3,0-1.7-1.3-3.1-2.8-3.1-1.4,0-2.6,1.3-2.6,2.9Z"/>
            <path class="cls-4" d="M234.1,54.2c.4-.9.6-1.9.7-2.9,1.6-2.5,2-5.3,2.5-8.1.1-.6.1-1.2.4-1.7,3.8,6.3,3.7,12.7.5,19.1-.2.4-.4.7-.6,1.1-.6-2.8-1.8-5.2-3.4-7.5Z"/>
            <path class="cls-8" d="M234.1,54.2c1.6,2.3,2.9,4.8,3.4,7.5-.5.8-1,1.6-1.8,2.1,0-3-1.7-5.3-3.2-7.7.4-.8.7-1.7,1.6-2Z"/>
            <path class="cls-1" d="M227.3,51.1c0-1.6,1.2-2.9,2.6-2.9,1.5,0,2.8,1.5,2.8,3.1,0,1.7-1.2,3-2.7,3-1.5,0-2.7-1.5-2.7-3.2Z"/>
            <path class="cls-3" d="M230.8,52.6c.1-.1.2-.2.3-.3-.1.1-.2.2-.3.3Z"/>
          </g>
          <path class="cls-9" d="M228.8,51.1c0-.7.5-1.3,1.2-1.3.7,0,1.2.6,1.2,1.4,0,.7-.5,1.3-1.2,1.3-.7,0-1.2-.6-1.2-1.4Z"/>
        </g>
      </g>
    </g>
  </g>
</svg>